<svg width="32" height="32" viewBox="0 0 32 32" fill="none" xmlns="http://www.w3.org/2000/svg">
  <!-- Coffee cup shape -->
  <path d="M8 12C8 10.8954 8.89543 10 10 10H22C23.1046 10 24 10.8954 24 12V20C24 22.2091 22.2091 24 20 24H12C9.79086 24 8 22.2091 8 20V12Z" fill="#C8A97E"/>

  <!-- Coffee surface -->
  <ellipse cx="16" cy="14" rx="6" ry="1.5" fill="#8B6F47"/>

  <!-- Handle -->
  <path d="M22 12V16C22 17.1046 22.8954 18 24 18H26C27.1046 18 28 17.1046 28 16V12C28 10.8954 27.1046 10 26 10H24C22.8954 10 22 10.8954 22 12Z" fill="#C8A97E"/>

  <!-- Coffee beans -->
  <circle cx="14" cy="16" r="1.5" fill="#5D3A1A"/>
  <circle cx="18" cy="18" r="1.5" fill="#5D3A1A"/>
  <circle cx="16" cy="20" r="1" fill="#5D3A1A"/>

  <!-- Steam -->
  <path d="M12 8C12 8 13 6 16 6C19 6 20 8 20 8" stroke="#E8DCC0" stroke-width="1.5" stroke-linecap="round" fill="none"/>
  <path d="M14 7C14 7 14.5 5.5 16 5.5C17.5 5.5 18 7 18 7" stroke="#E8DCC0" stroke-width="1" stroke-linecap="round" fill="none"/>
</svg>
